<svg height="512pt" viewBox="0 0 512 512" width="512pt" xmlns="http://www.w3.org/2000/svg"><path d="m8 88h496v232h-496zm0 0" fill="#fdf8ff"/><path d="m504 320h-496v56c0 4.414062 3.585938 8 8 8h480c4.414062 0 8-3.585938 8-8zm0 0" fill="#cf71fb"/><path d="m312 472h-112l16-88h80zm0 0" fill="#c34efa"/><path d="m360 504h-208v-16l16-16h176l16 16zm0 0" fill="#cf71fb"/><path d="m232 344h48v16h-48zm0 0"/><path d="m496 80h-32v16h32v216h-480v-216h32v-16h-32c-8.824219 0-16 7.175781-16 16v280c0 8.824219 7.175781 16 16 16h190.414062l-13.085937 72h-25.328125c-2.128906 0-4.160156.839844-5.65625 2.34375l-16 16c-1.503906 1.496094-2.34375 3.535156-2.34375 5.65625v16c0 4.414062 3.574219 8 8 8h208c4.425781 0 8-3.585938 8-8v-16c0-2.121094-.839844-4.160156-2.34375-5.65625l-16-16c-1.496094-1.503906-3.527344-2.34375-5.65625-2.34375h-25.328125l-13.085937-72h190.414062c8.824219 0 16-7.175781 16-16v-280c0-8.824219-7.175781-16-16-16zm-144 411.3125v4.6875h-192v-4.6875l11.3125-11.3125h169.375zm-49.585938-27.3125h-92.828124l13.09375-72h25.328124l-.007812 32h-8v16h32v-16h-8l.007812-32h25.3125zm193.585938-88h-480v-48h480zm0 0"/><path d="m72 8h368v280h-368zm0 0" fill="#fff8f1"/><path d="m72 8h368v48h-368zm0 0" fill="#fddf81"/><path d="m440 0h-368c-4.425781 0-8 3.585938-8 8v280c0 4.414062 3.574219 8 8 8h368c4.425781 0 8-3.585938 8-8v-280c0-4.414062-3.574219-8-8-8zm-360 16h352v32h-352zm0 264v-216h352v216zm0 0"/><path d="m112 24h16v16h-16zm0 0"/><path d="m144 24h16v16h-16zm0 0"/><path d="m176 24h16v16h-16zm0 0"/><path d="m352 24h48v16h-48zm0 0"/><path d="m272 192h-32c-8.824219 0-16-7.175781-16-16v-64c0-8.824219 7.175781-16 16-16h32c8.824219 0 16 7.175781 16 16v64c0 8.824219-7.175781 16-16 16zm-32-80v64h32.007812l-.007812-64zm0 0"/><path d="m200 192h-16v-24h-40c-4.425781 0-8-3.585938-8-8v-8c0-1.574219.472656-3.128906 1.34375-4.441406l32-48c1.488281-2.222656 3.984375-3.558594 6.65625-3.558594h16c4.425781 0 8 3.585938 8 8v48h8v16h-8zm-46.382812-40h30.382812v-40h-3.71875zm0 0"/><path d="m368 192h-16v-24h-40c-4.425781 0-8-3.585938-8-8v-8c0-1.574219.472656-3.128906 1.34375-4.441406l32-48c1.488281-2.222656 3.984375-3.558594 6.65625-3.558594h16c4.425781 0 8 3.585938 8 8v48h8v16h-8zm-46.382812-40h30.382812v-40h-3.71875zm0 0"/><path d="m288 248h-64c-8.839844 0-16-7.160156-16-16s7.160156-16 16-16h64c8.839844 0 16 7.160156 16 16s-7.160156 16-16 16zm0 0" fill="#fddf81"/><path d="m288 256h-64c-13.230469 0-24-10.769531-24-24s10.769531-24 24-24h64c13.230469 0 24 10.769531 24 24s-10.769531 24-24 24zm-64-32c-4.414062 0-8 3.59375-8 8s3.585938 8 8 8h64c4.414062 0 8-3.59375 8-8s-3.585938-8-8-8zm0 0"/></svg>